<?xml version="1.0" encoding="UTF-8" standalone="no"?>
<!-- Created with Inkscape (http://www.inkscape.org/) -->

<svg
   xmlns:dc="http://purl.org/dc/elements/1.1/"
   xmlns:cc="http://creativecommons.org/ns#"
   xmlns:rdf="http://www.w3.org/1999/02/22-rdf-syntax-ns#"
   xmlns:svg="http://www.w3.org/2000/svg"
   xmlns="http://www.w3.org/2000/svg"
   xmlns:xlink="http://www.w3.org/1999/xlink"
   version="1.1"
   width="744.09448"
   height="1052.3622"
   id="svg2986">
  <title
     id="title3044">eighth note</title>
  <defs
     id="defs2988">
    <linearGradient
       id="linearGradient3013">
      <stop
         id="stop3015"
         style="stop-color:#000000;stop-opacity:0.8263889"
         offset="0" />
      <stop
         id="stop3017"
         style="stop-color:#000000;stop-opacity:1"
         offset="1" />
    </linearGradient>
    <linearGradient
       x1="382.33768"
       y1="489.13965"
       x2="490.53049"
       y2="333.89423"
       id="linearGradient3019"
       xlink:href="#linearGradient3013"
       gradientUnits="userSpaceOnUse"
       gradientTransform="matrix(-2.0778635,0,0,-2.0778635,1113.5777,1333.7269)" />
    <linearGradient
       x1="382.33768"
       y1="489.13965"
       x2="490.53049"
       y2="333.89423"
       id="linearGradient3019-3"
       xlink:href="#linearGradient3013-7"
       gradientUnits="userSpaceOnUse"
       gradientTransform="matrix(2.0778635,0,0,2.0778635,-518.08353,-281.80071)" />
    <linearGradient
       id="linearGradient3013-7">
      <stop
         id="stop3015-9"
         style="stop-color:#000000;stop-opacity:0.8263889"
         offset="0" />
      <stop
         id="stop3017-0"
         style="stop-color:#000000;stop-opacity:1"
         offset="1" />
    </linearGradient>
    <linearGradient
       x1="382.33768"
       y1="489.13965"
       x2="490.53049"
       y2="333.89423"
       id="linearGradient3062"
       xlink:href="#linearGradient3013"
       gradientUnits="userSpaceOnUse"
       gradientTransform="matrix(-2.0778635,0,0,-2.0778635,1113.5777,1333.7269)" />
  </defs>
  <metadata
     id="metadata2991">
    <rdf:RDF>
      <cc:Work
         rdf:about="">
        <dc:format>image/svg+xml</dc:format>
        <dc:type
           rdf:resource="http://purl.org/dc/dcmitype/StillImage" />
        <dc:title>eighth note</dc:title>
        <cc:license
           rdf:resource="http://creativecommons.org/licenses/publicdomain/" />
        <dc:creator>
          <cc:Agent>
            <dc:title>Jaschon</dc:title>
          </cc:Agent>
        </dc:creator>
      </cc:Work>
      <cc:License
         rdf:about="http://creativecommons.org/licenses/publicdomain/">
        <cc:permits
           rdf:resource="http://creativecommons.org/ns#Reproduction" />
        <cc:permits
           rdf:resource="http://creativecommons.org/ns#Distribution" />
        <cc:permits
           rdf:resource="http://creativecommons.org/ns#DerivativeWorks" />
      </cc:License>
    </rdf:RDF>
  </metadata>
  <g
     transform="matrix(-1,0,0,-1,669.56993,1049.8712)"
     id="layer1">
    <path
       d="m 326.09375,223.84375 c -26.94488,0.30383 -53.51581,9.63689 -76.65625,23.5625 -34.63317,18.3788 -71.62892,47.09676 -72.875,89.90625 -0.84896,68.92818 -2.09875,134.25623 -2.22461,197.30121 -0.0684,34.28545 0.19552,67.89568 1.03711,101.04254 0.71813,61.74672 1.22223,123.50012 1.4375,185.25 0.36593,12.97349 21.47256,16.13534 26.4375,4.65625 14.31979,-21.13649 21.70302,-46.74602 40.15625,-65 21.13477,-27.83462 48.15113,-50.89515 69.09375,-79.0625 15.15655,-19.68077 26.54515,-42.15021 36.0625,-65.34375 11.58719,-31.7567 6.54906,-67.41073 -5.8125,-98.5 -11.86141,-19.89327 -22.96563,-1.31509 -19.07235,12.11819 4.11427,42.04178 -18.61266,104.68769 -44.42765,131.13181 -16.77226,14.70084 -35.80628,47.09093 -61.375,35.9375 -16.88486,-10.63667 -9.52643,-32.11505 -11.34375,-48.6875 -0.3713,-37.72251 -1.06244,-80.64671 -0.84375,-113.1875 0.21869,-32.54079 1.44468,-57.46901 2.3125,-108.375 2.39027,-17.09838 7.7188,-34.86744 26.875,-28.8125 39.20134,14.91499 85.22094,10.40501 121.625,-10.34375 37.0843,-16.47148 67.22037,-55.32045 65,-97.03125 -0.69789,-35.97432 -35.16515,-60.27024 -68.46875,-63.6875 -8.95351,-2.06872 -17.95587,-2.97628 -26.9375,-2.875 z"
       transform="matrix(-1,0,0,-1,595.49414,1051.9262)"
       id="path3"
       style="fill:url(#linearGradient3062);fill-opacity:1;fill-rule:evenodd;stroke:#000000;stroke-width:5.92410803;stroke-linecap:round;stroke-linejoin:round" />
  </g>
  <g
     transform="matrix(1,0,0,-1,411.65778,1164.5503)"
     id="layer1-2" />
</svg>
