<?xml version="1.0" encoding="UTF-8" standalone="no"?>
<!-- Created with Inkscape (http://www.inkscape.org/) -->

<svg
   xmlns:dc="http://purl.org/dc/elements/1.1/"
   xmlns:cc="http://creativecommons.org/ns#"
   xmlns:rdf="http://www.w3.org/1999/02/22-rdf-syntax-ns#"
   xmlns:svg="http://www.w3.org/2000/svg"
   xmlns="http://www.w3.org/2000/svg"
   xmlns:xlink="http://www.w3.org/1999/xlink"
   version="1.1"
   width="744.09448"
   height="1052.3622"
   id="svg2986">
  <title
     id="title3044">sixteenth note</title>
  <defs
     id="defs2988">
    <linearGradient
       id="linearGradient3013">
      <stop
         id="stop3015"
         style="stop-color:#000000;stop-opacity:0.8263889"
         offset="0" />
      <stop
         id="stop3017"
         style="stop-color:#000000;stop-opacity:1"
         offset="1" />
    </linearGradient>
    <linearGradient
       x1="382.33768"
       y1="489.13965"
       x2="490.53049"
       y2="333.89423"
       id="linearGradient3019"
       xlink:href="#linearGradient3013"
       gradientUnits="userSpaceOnUse"
       gradientTransform="matrix(2.0778635,0,0,2.0778635,-518.08353,-281.80071)" />
    <linearGradient
       x1="382.33768"
       y1="489.13965"
       x2="490.53049"
       y2="333.89423"
       id="linearGradient3019-9"
       xlink:href="#linearGradient3013-3"
       gradientUnits="userSpaceOnUse"
       gradientTransform="matrix(2.0778635,0,0,2.0778635,-518.08353,-281.80071)" />
    <linearGradient
       id="linearGradient3013-3">
      <stop
         id="stop3015-8"
         style="stop-color:#000000;stop-opacity:0.8263889"
         offset="0" />
      <stop
         id="stop3017-0"
         style="stop-color:#000000;stop-opacity:1"
         offset="1" />
    </linearGradient>
    <linearGradient
       x1="382.33768"
       y1="489.13965"
       x2="490.53049"
       y2="333.89423"
       id="linearGradient3033"
       xlink:href="#linearGradient3013"
       gradientUnits="userSpaceOnUse"
       gradientTransform="matrix(-2.0778635,0,0,-2.0778635,1262.1204,1334.0342)" />
    <linearGradient
       x1="382.33768"
       y1="489.13965"
       x2="490.53049"
       y2="333.89423"
       id="linearGradient3033-5"
       xlink:href="#linearGradient3013-6"
       gradientUnits="userSpaceOnUse"
       gradientTransform="matrix(-2.0778635,0,0,-2.0778635,1262.1204,1334.0342)" />
    <linearGradient
       id="linearGradient3013-6">
      <stop
         id="stop3015-7"
         style="stop-color:#000000;stop-opacity:0.8263889"
         offset="0" />
      <stop
         id="stop3017-9"
         style="stop-color:#000000;stop-opacity:1"
         offset="1" />
    </linearGradient>
    <linearGradient
       x1="382.33768"
       y1="489.13965"
       x2="490.53049"
       y2="333.89423"
       id="linearGradient3088"
       xlink:href="#linearGradient3013-6"
       gradientUnits="userSpaceOnUse"
       gradientTransform="matrix(2.0778635,0,0,-2.0778635,-734.29606,1320.5655)" />
    <linearGradient
       x1="382.33768"
       y1="489.13965"
       x2="490.53049"
       y2="333.89423"
       id="linearGradient3019-6"
       xlink:href="#linearGradient3013-8"
       gradientUnits="userSpaceOnUse"
       gradientTransform="matrix(2.0778635,0,0,2.0778635,-518.08353,-281.80071)" />
    <linearGradient
       id="linearGradient3013-8">
      <stop
         id="stop3015-9"
         style="stop-color:#000000;stop-opacity:0.8263889"
         offset="0" />
      <stop
         id="stop3017-1"
         style="stop-color:#000000;stop-opacity:1"
         offset="1" />
    </linearGradient>
    <linearGradient
       x1="382.33768"
       y1="489.13965"
       x2="490.53049"
       y2="333.89423"
       id="linearGradient3005"
       xlink:href="#linearGradient3013-8"
       gradientUnits="userSpaceOnUse"
       gradientTransform="matrix(2.0778635,0,0,2.0778635,219.69851,-706.74231)" />
    <linearGradient
       x1="382.33768"
       y1="489.13965"
       x2="490.53049"
       y2="333.89423"
       id="linearGradient3127"
       xlink:href="#linearGradient3013-6"
       gradientUnits="userSpaceOnUse"
       gradientTransform="matrix(2.0778635,0,0,-2.0778635,-656.18915,1361.5795)" />
  </defs>
  <metadata
     id="metadata2991">
    <rdf:RDF>
      <cc:Work
         rdf:about="">
        <dc:format>image/svg+xml</dc:format>
        <dc:type
           rdf:resource="http://purl.org/dc/dcmitype/StillImage" />
        <dc:title>sixteenth note</dc:title>
        <cc:license
           rdf:resource="http://creativecommons.org/licenses/publicdomain/" />
        <dc:creator>
          <cc:Agent>
            <dc:title>Jaschon</dc:title>
          </cc:Agent>
        </dc:creator>
      </cc:Work>
      <cc:License
         rdf:about="http://creativecommons.org/licenses/publicdomain/">
        <cc:permits
           rdf:resource="http://creativecommons.org/ns#Reproduction" />
        <cc:permits
           rdf:resource="http://creativecommons.org/ns#Distribution" />
        <cc:permits
           rdf:resource="http://creativecommons.org/ns#DerivativeWorks" />
      </cc:License>
    </rdf:RDF>
  </metadata>
  <g
     id="layer1">
    <path
       d="m 401.04441,196.85779 c -26.94489,0.30383 -53.51582,9.63689 -76.65625,23.5625 -34.6332,18.3788 -71.6289,47.09676 -72.875,89.90625 -0.97502,162.40248 -4.79256,310.17832 -3.28125,459 1.09007,28.93076 -8.34914,73.52247 19.34375,86.15625 13.08534,0.80105 16.38307,-15.07392 22.40625,-23.5625 22.20121,-52.26016 69.42563,-86.51776 102.40625,-131.21875 29.04541,-33.49244 45.54977,-79.42104 37.71875,-123.71875 0.17095,-16.84276 -17.24999,-62.9657 -30.46875,-28.96875 2.22492,25.32875 0.38475,51.22162 -8.84375,75.1875 -8.27419,34.78724 -33.45532,60.82015 -58.1875,84.9375 -23.79345,26.61008 -60.19547,6.23522 -44.9375,-26.6875 22.87481,-54.37225 72.30253,-89.63948 106.03125,-136.46875 32.73905,-38.25105 37.56283,-106.26724 29.78125,-141.53125 -7.78158,-35.26401 -28.78263,-28.62291 -25.65625,-1.84375 4.91757,33.71049 -5.82807,67.31449 -19.625,97.65625 -15.16645,26.85974 -37.55795,50.47262 -62.65625,68.09375 -35.62774,13.77724 -32.06735,-31.16181 -32.03125,-60.46875 -0.99871,-13.40399 -1.45234,-26.8429 -1.65625,-40.3125 0.35,-22.32666 -0.29423,-47.22036 1.09375,-66.96875 1.38798,-19.74839 7.7188,-34.86744 26.875,-28.8125 39.2013,14.91499 85.22091,10.40501 121.625,-10.34375 37.0843,-16.47148 67.22037,-55.32045 65,-97.03125 -0.69789,-35.97432 -35.16515,-60.27024 -68.46875,-63.6875 -8.95352,-2.06872 -17.95587,-2.97628 -26.9375,-2.875 z"
       id="path3-4"
       style="fill:url(#linearGradient3127);fill-opacity:1;fill-rule:evenodd;stroke:#000000;stroke-width:5.92410803;stroke-linecap:round;stroke-linejoin:round" />
    <g
       transform="matrix(-1,0,0,-1,1330.1205,558.98686)"
       id="layer1-4" />
  </g>
  <g
     transform="translate(-370.20381,-179.85259)"
     id="layer1-2" />
</svg>
